<?xml version="1.0" encoding="UTF-8"?><svg id="a" xmlns="http://www.w3.org/2000/svg" viewBox="0 0 24 24"><g id="c"><g id="d"><path id="e" d="m5.07,16l2.08-1.2v-5.6l4.85-2.8v-2.4s-6.93,4-6.93,4v8Z" fill="#aa00d4" stroke-width="0"/><path id="f" d="m12,12l4.85-2.8v5.6l-4.85,2.8v-5.6Z" fill="#ffb000" stroke-width="0"/><path id="g" d="m22.39,6v12l-10.39,6v-4l6.93-4v-8l3.46-2Z" fill="#aa00d4" stroke-width="0"/><path id="h" d="m12,4v2.4s4.85,2.8,4.85,2.8v5.6l2.08,1.2v-8l-6.93-4Z" fill="#eaf" stroke-width="0"/><path id="i" d="m7.15,14.8l4.85,2.8v-5.6s-4.85-2.8-4.85-2.8v5.6Z" fill="#ffe680" stroke-width="0"/><path id="j" d="m1.61,6l3.46,2v8l6.93,4s0,4,0,4L1.61,18V6Z" fill="#eaf" stroke-width="0"/><path id="k" d="m5.07,16l2.08-1.2,4.85,2.8,4.85-2.8,2.08,1.2-6.93,4-6.93-4Z" fill="#d5f" stroke-width="0"/><path id="l" d="m7.15,9.2l4.85-2.8,4.85,2.8-4.85,2.8-4.85-2.8Z" fill="#ffd42a" stroke-width="0"/><path id="m" d="m1.61,6L12,0l10.39,6-3.46,2-6.93-4-6.93,4-3.46-2Z" fill="#d5f" stroke-width="0"/><path id="n" d="m7.15,9.2l4.69,2.89.16,5.51.17-5.5,4.68-2.9-4.85,2.62-4.85-2.62Z" fill="#fff" stroke-width="0"/><path id="o" d="m5.07,16c2.27,1.32,4.49,2.8,6.77,4.09l.16,3.91.16-3.91,6.77-4.09-6.93,3.81-6.93-3.81Z" fill="#fff" stroke-width="0"/><path id="p" d="m12,4l6.76,4.1.16,7.9.16-7.91,3.3-2.09-3.46,1.82-6.93-3.82Z" fill="#fff" stroke-width="0"/><path id="q" d="m12,4l-6.93,3.82-3.46-1.82,3.3,2.09.16,7.91c.09-2.63.06-5.29.16-7.91l6.77-4.09Z" fill="#fff" stroke-width="0"/></g></g></svg>